HIERARCHY
ROOT Hips
{
	OFFSET -0.000001 93.996948 3.948254
	CHANNELS 6 Xposition Yposition Zposition Xrotation Yrotation Zrotation
	JOINT Spine1
	{
		OFFSET 0.000032 8.483833 -3.948275
		CHANNELS 6 Xposition Yposition Zposition Xrotation Yrotation Zrotation
		JOINT Spine2
		{
			OFFSET 0.000001 7.550011 -0.000000
			CHANNELS 6 Xposition Yposition Zposition Xrotation Yrotation Zrotation
			JOINT Spine3
			{
				OFFSET 0.000001 7.550003 -0.000001
				CHANNELS 6 Xposition Yposition Zposition Xrotation Yrotation Zrotation
				JOINT Spine4
				{
					OFFSET -0.000030 12.748734 -0.000001
					CHANNELS 6 Xposition Yposition Zposition Xrotation Yrotation Zrotation
					JOINT Neck
					{
						OFFSET 0.000001 20.150330 -0.000031
						CHANNELS 6 Xposition Yposition Zposition Xrotation Yrotation Zrotation
						JOINT Head
						{
							OFFSET -0.000009 11.100937 0.000009
							CHANNELS 6 Xposition Yposition Zposition Xrotation Yrotation Zrotation
							End Site
							{
								OFFSET -0.000003 -11.100937 -0.000006
							}
						}
					}
					JOINT RightShoulder
					{
						OFFSET -7.000000 12.368073 1.903786
						CHANNELS 6 Xposition Yposition Zposition Xrotation Yrotation Zrotation
						JOINT RightArm
						{
							OFFSET -13.607778 -0.000031 -0.000001
							CHANNELS 6 Xposition Yposition Zposition Xrotation Yrotation Zrotation
							JOINT RightForeArm
							{
								OFFSET -27.102148 -0.000046 0.000050
								CHANNELS 6 Xposition Yposition Zposition Xrotation Yrotation Zrotation
								JOINT RightHand
								{
									OFFSET -28.299988 -0.000031 -0.000030
									CHANNELS 6 Xposition Yposition Zposition Xrotation Yrotation Zrotation
									JOINT RightFinger1Metacarpal
									{
										OFFSET -2.077995 -0.102997 2.784805
										CHANNELS 6 Xposition Yposition Zposition Xrotation Yrotation Zrotation
										JOINT RightFinger1Proximal
										{
											OFFSET -3.454681 0.000015 1.994656
											CHANNELS 6 Xposition Yposition Zposition Xrotation Yrotation Zrotation
											JOINT RightFinger1Distal
											{
												OFFSET -3.027802 -0.000031 -0.000007
												CHANNELS 6 Xposition Yposition Zposition Xrotation Yrotation Zrotation
												End Site
												{
													OFFSET 3.027802 0.000015 0.000003
												}
											}
										}
									}
									JOINT RightFinger5Metacarpal
									{
										OFFSET -2.487846 -0.102982 -1.487572
										CHANNELS 6 Xposition Yposition Zposition Xrotation Yrotation Zrotation
										JOINT RightFinger5Proximal
										{
											OFFSET -4.460068 -0.000046 -1.623385
											CHANNELS 6 Xposition Yposition Zposition Xrotation Yrotation Zrotation
											JOINT RightFinger5Medial
											{
												OFFSET -3.500015 0.000000 0.000003
												CHANNELS 6 Xposition Yposition Zposition Xrotation Yrotation Zrotation
												JOINT RightFinger5Distal
												{
													OFFSET -2.199982 0.000015 -0.000002
													CHANNELS 6 Xposition Yposition Zposition Xrotation Yrotation Zrotation
													End Site
													{
														OFFSET 2.199982 0.000000 0.000004
													}
												}
											}
										}
									}
									JOINT RightFinger4Metacarpal
									{
										OFFSET -2.742973 -0.102997 -0.547513
										CHANNELS 6 Xposition Yposition Zposition Xrotation Yrotation Zrotation
										JOINT RightFinger4Proximal
										{
											OFFSET -4.956100 0.000000 -0.873948
											CHANNELS 6 Xposition Yposition Zposition Xrotation Yrotation Zrotation
											JOINT RightFinger4Medial
											{
												OFFSET -4.299995 -0.000061 0.000008
												CHANNELS 6 Xposition Yposition Zposition Xrotation Yrotation Zrotation
												JOINT RightFinger4Distal
												{
													OFFSET -2.773201 0.000015 0.000001
													CHANNELS 6 Xposition Yposition Zposition Xrotation Yrotation Zrotation
													End Site
													{
														OFFSET 2.773193 0.000000 0.000005
													}
												}
											}
										}
									}
									JOINT RightFinger3Metacarpal
									{
										OFFSET -2.767418 -0.102982 0.544732
										CHANNELS 6 Xposition Yposition Zposition Xrotation Yrotation Zrotation
										JOINT RightFinger3Proximal
										{
											OFFSET -5.364998 -0.000046 -0.000019
											CHANNELS 6 Xposition Yposition Zposition Xrotation Yrotation Zrotation
											JOINT RightFinger3Medial
											{
												OFFSET -4.699974 0.000000 0.000005
												CHANNELS 6 Xposition Yposition Zposition Xrotation Yrotation Zrotation
												JOINT RightFinger3Distal
												{
													OFFSET -3.099998 -0.000015 0.000002
													CHANNELS 6 Xposition Yposition Zposition Xrotation Yrotation Zrotation
													End Site
													{
														OFFSET 3.100006 0.000000 0.000005
													}
												}
											}
										}
									}
									JOINT RightFinger2Metacarpal
									{
										OFFSET -2.645569 -0.102982 1.603400
										CHANNELS 6 Xposition Yposition Zposition Xrotation Yrotation Zrotation
										JOINT RightFinger2Proximal
										{
											OFFSET -5.331619 -0.000031 0.940092
											CHANNELS 6 Xposition Yposition Zposition Xrotation Yrotation Zrotation
											JOINT RightFinger2Medial
											{
												OFFSET -4.499969 0.000031 0.000002
												CHANNELS 6 Xposition Yposition Zposition Xrotation Yrotation Zrotation
												JOINT RightFinger2Distal
												{
													OFFSET -2.768509 0.000000 0.000002
													CHANNELS 6 Xposition Yposition Zposition Xrotation Yrotation Zrotation
													End Site
													{
														OFFSET 2.768509 0.000000 0.000004
													}
												}
											}
										}
									}
								}
							}
						}
					}
					JOINT LeftShoulder
					{
						OFFSET 7.000000 12.368057 1.903799
						CHANNELS 6 Xposition Yposition Zposition Xrotation Yrotation Zrotation
						JOINT LeftArm
						{
							OFFSET 13.607780 0.000015 0.000002
							CHANNELS 6 Xposition Yposition Zposition Xrotation Yrotation Zrotation
							JOINT LeftForeArm
							{
								OFFSET 27.102152 -0.000031 0.000091
								CHANNELS 6 Xposition Yposition Zposition Xrotation Yrotation Zrotation
								JOINT LeftHand
								{
									OFFSET 28.299984 -0.000031 0.000006
									CHANNELS 6 Xposition Yposition Zposition Xrotation Yrotation Zrotation
									JOINT LeftFinger5Metacarpal
									{
										OFFSET 2.487846 -0.102997 -1.487590
										CHANNELS 6 Xposition Yposition Zposition Xrotation Yrotation Zrotation
										JOINT LeftFinger5Proximal
										{
											OFFSET 4.460068 -0.000046 -1.623356
											CHANNELS 6 Xposition Yposition Zposition Xrotation Yrotation Zrotation
											JOINT LeftFinger5Medial
											{
												OFFSET 3.499985 0.000000 0.000001
												CHANNELS 6 Xposition Yposition Zposition Xrotation Yrotation Zrotation
												JOINT LeftFinger5Distal
												{
													OFFSET 2.199982 0.000015 0.000011
													CHANNELS 6 Xposition Yposition Zposition Xrotation Yrotation Zrotation
													End Site
													{
														OFFSET -2.199982 0.000000 0.000004
													}
												}
											}
										}
									}
									JOINT LeftFinger4Metacarpal
									{
										OFFSET 2.742973 -0.102982 -0.547558
										CHANNELS 6 Xposition Yposition Zposition Xrotation Yrotation Zrotation
										JOINT LeftFinger4Proximal
										{
											OFFSET 4.956093 -0.000061 -0.873885
											CHANNELS 6 Xposition Yposition Zposition Xrotation Yrotation Zrotation
											JOINT LeftFinger4Medial
											{
												OFFSET 4.299995 0.000031 0.000002
												CHANNELS 6 Xposition Yposition Zposition Xrotation Yrotation Zrotation
												JOINT LeftFinger4Distal
												{
													OFFSET 2.773186 -0.000046 0.000005
													CHANNELS 6 Xposition Yposition Zposition Xrotation Yrotation Zrotation
													End Site
													{
														OFFSET -2.773178 0.000000 0.000004
													}
												}
											}
										}
									}
									JOINT LeftFinger3Metacarpal
									{
										OFFSET 2.767410 -0.102982 0.544737
										CHANNELS 6 Xposition Yposition Zposition Xrotation Yrotation Zrotation
										JOINT LeftFinger3Proximal
										{
											OFFSET 5.364967 -0.000015 -0.000021
											CHANNELS 6 Xposition Yposition Zposition Xrotation Yrotation Zrotation
											JOINT LeftFinger3Medial
											{
												OFFSET 4.699997 0.000046 0.000009
												CHANNELS 6 Xposition Yposition Zposition Xrotation Yrotation Zrotation
												JOINT LeftFinger3Distal
												{
													OFFSET 3.099983 -0.000015 -0.000002
													CHANNELS 6 Xposition Yposition Zposition Xrotation Yrotation Zrotation
													End Site
													{
														OFFSET -3.099976 0.000000 0.000006
													}
												}
											}
										}
									}
									JOINT LeftFinger2Metacarpal
									{
										OFFSET 2.645523 -0.103012 1.603395
										CHANNELS 6 Xposition Yposition Zposition Xrotation Yrotation Zrotation
										JOINT LeftFinger2Proximal
										{
											OFFSET 5.331627 0.000046 0.940115
											CHANNELS 6 Xposition Yposition Zposition Xrotation Yrotation Zrotation
											JOINT LeftFinger2Medial
											{
												OFFSET 4.499977 -0.000046 0.000007
												CHANNELS 6 Xposition Yposition Zposition Xrotation Yrotation Zrotation
												JOINT LeftFinger2Distal
												{
													OFFSET 2.768486 0.000000 -0.000012
													CHANNELS 6 Xposition Yposition Zposition Xrotation Yrotation Zrotation
													End Site
													{
														OFFSET -2.768478 0.000000 0.000004
													}
												}
											}
										}
									}
									JOINT LeftFinger1Metacarpal
									{
										OFFSET 2.077988 -0.103027 2.784891
										CHANNELS 6 Xposition Yposition Zposition Xrotation Yrotation Zrotation
										JOINT LeftFinger1Proximal
										{
											OFFSET 3.454681 -0.000031 1.994549
											CHANNELS 6 Xposition Yposition Zposition Xrotation Yrotation Zrotation
											JOINT LeftFinger1Distal
											{
												OFFSET 3.027786 -0.000031 -0.000037
												CHANNELS 6 Xposition Yposition Zposition Xrotation Yrotation Zrotation
												End Site
												{
													OFFSET -3.027786 0.000015 0.000004
												}
											}
										}
									}
								}
							}
						}
					}
				}
			}
		}
	}
	JOINT RightThigh
	{
		OFFSET -8.099951 0.000000 -0.000000
		CHANNELS 6 Xposition Yposition Zposition Xrotation Yrotation Zrotation
		JOINT RightShin
		{
			OFFSET 0.000002 -43.200016 0.000017
			CHANNELS 6 Xposition Yposition Zposition Xrotation Yrotation Zrotation
			JOINT RightFoot
			{
				OFFSET -0.062555 -43.299969 0.000014
				CHANNELS 6 Xposition Yposition Zposition Xrotation Yrotation Zrotation
				JOINT RightToe
				{
					OFFSET -0.000010 -6.239449 13.169401
					CHANNELS 6 Xposition Yposition Zposition Xrotation Yrotation Zrotation
					End Site
					{
						OFFSET 0.000008 0.000001 -14.572708
					}
				}
			}
		}
	}
	JOINT LeftThigh
	{
		OFFSET 8.099950 0.000000 -0.000001
		CHANNELS 6 Xposition Yposition Zposition Xrotation Yrotation Zrotation
		JOINT LeftShin
		{
			OFFSET -0.000025 -43.199982 0.000016
			CHANNELS 6 Xposition Yposition Zposition Xrotation Yrotation Zrotation
			JOINT LeftFoot
			{
				OFFSET 0.062445 -43.299973 0.000030
				CHANNELS 6 Xposition Yposition Zposition Xrotation Yrotation Zrotation
				JOINT LeftToe
				{
					OFFSET -0.000023 -6.239417 13.169409
					CHANNELS 6 Xposition Yposition Zposition Xrotation Yrotation Zrotation
					End Site
					{
						OFFSET -0.000013 -0.000016 -14.572701
					}
				}
			}
		}
	}
}
MOTION
Frames: 3
Frame Time: 0.033333
18.946934 29.203552 0.000000 27.007364 7.151529 -8.014877 0.000031 8.483849 -3.948276 0.000001 0.000001 0.000013 -0.000000 7.550003 0.000002 0.000001 -0.000000 0.000001 0.000004 7.550011 -0.000003 0.000001 0.000000 0.000000 -0.000023 12.748734 -0.000003 -0.000008 -29.322026 0.000002 -0.000004 20.150345 -0.000029 -0.000001 -0.000001 0.000001 -0.000005 11.100936 0.000009 -1.570658 -0.379047 0.183503 -7.000001 12.368076 1.903788 0.000083 -0.000001 -0.000052 -13.607776 -0.000021 -0.000000 -30.519266 0.448540 42.918791 -27.102156 -0.000038 -0.000035 1.410983 19.944234 -7.653976 -28.299971 -0.000040 -0.000091 -0.000002 -0.000004 -0.000004 -2.077971 -0.102979 2.784882 58.687301 -1.786360 -12.439768 -3.454680 -0.000029 1.994542 0.384980 23.648584 6.196485 -3.027772 -0.000014 0.000018 0.354960 -6.350833 6.390194 -2.487848 -0.102988 -1.487615 -5.877652 -0.587583 5.118790 -4.460032 -0.000017 -1.623345 -13.699201 -10.889723 13.511404 -3.499996 -0.000027 -0.000011 -0.000023 0.000005 18.000007 -2.199982 0.000041 -0.000008 -0.000030 -0.000000 18.000019 -2.742968 -0.102993 -0.547552 -2.720102 -0.128108 2.547551 -4.956045 -0.000004 -0.873906 -8.112389 -1.343027 16.789778 -4.300014 0.000008 -0.000002 -0.000032 0.000004 18.000007 -2.773167 -0.000004 -0.000003 -0.000031 -0.000001 18.000007 -2.767412 -0.103005 0.544726 0.000000 -0.000014 -0.000104 -5.364960 -0.000007 -0.000036 -1.673206 5.134987 18.075085 -4.699989 0.000001 -0.000004 -0.000027 0.000001 18.000007 -3.099987 -0.000008 0.000000 -0.000032 -0.000002 18.000012 -2.645555 -0.103018 1.603409 1.230943 -0.002497 -0.217160 -5.331570 -0.000012 0.940071 0.562046 8.287812 17.910740 -4.499969 0.000025 -0.000007 -0.000027 -0.000000 18.000011 -2.768498 0.000006 -0.000002 -0.000032 -0.000003 18.000007 7.000001 12.368073 1.903804 -0.000010 0.000004 0.000001 13.607771 -0.000007 -0.000004 30.505701 1.884864 -21.139425 27.102160 -0.000030 0.000037 -1.586341 -15.864610 -11.145381 28.299999 -0.000018 -0.000103 0.000001 0.000000 0.000025 2.487852 -0.102956 -1.487620 -5.877495 0.587635 -5.118831 4.460061 -0.000030 -1.623346 -13.699339 10.889685 -13.511464 3.500000 -0.000006 -0.000016 0.000062 -0.000011 -18.000016 2.199990 0.000019 0.000003 -0.000116 -0.000033 -18.000014 2.742965 -0.102973 -0.547547 -2.719961 0.128173 -2.547590 4.956059 -0.000043 -0.873907 -8.112519 1.342984 -16.789821 4.299999 0.000019 -0.000009 -0.000026 0.000000 -17.999985 2.773186 -0.000023 -0.000015 -0.000026 0.000010 -18.000011 2.767435 -0.102967 0.544726 0.000001 0.000008 0.000033 5.364955 -0.000028 -0.000039 -1.673208 -5.134981 -18.075086 4.699990 0.000047 -0.000012 -0.000031 0.000008 -18.000053 3.099994 0.000030 -0.000011 -0.000033 -0.000004 -17.999999 2.645569 -0.102997 1.603418 1.231091 0.002565 0.217095 5.331574 -0.000011 0.940078 0.561902 -8.287854 -17.910725 4.499970 0.000006 -0.000003 -0.000026 0.000008 -18.000043 2.768482 0.000008 -0.000016 -0.000027 -0.000001 -18.000009 2.077996 -0.102984 2.784866 58.687321 1.786375 12.439755 3.454677 -0.000032 1.994547 0.385059 -23.648594 -6.196391 3.027811 -0.000032 0.000014 0.354922 6.350772 -6.390222 -8.099956 0.000005 0.000004 -64.659816 25.780803 -67.642410 0.000004 -43.200008 0.000023 102.050881 -0.183253 -0.082955 -0.062555 -43.299992 0.000015 -23.508867 1.420539 28.301618 -0.000009 -6.239442 13.169403 -1.991475 0.805683 -0.000008 8.099950 0.000006 0.000009 -107.047916 -42.046566 19.064743 -0.000027 -43.199978 0.000022 149.493935 0.135194 -0.033205 0.062445 -43.299973 0.000023 -36.793157 -4.665863 -24.785160 -0.000016 -6.239413 13.169406 -11.976923 2.639212 0.000025 
14.833319 84.218704 0.714029 25.346800 6.866687 -8.302450 0.000031 8.483833 -3.948283 0.000000 -0.000001 0.000014 -0.000001 7.550003 0.000005 0.000002 0.000000 0.000000 -0.000000 7.549995 -0.000000 -0.000002 -0.000000 0.000000 -0.000028 12.748734 0.000001 -0.000009 -29.645934 0.000001 -0.000001 20.150360 -0.000027 -0.000002 -0.000003 -0.000000 -0.000012 11.100951 0.000015 -0.708742 1.513769 0.243501 -7.000000 12.368076 1.903787 0.000086 -0.000002 -0.000051 -13.607782 0.000003 -0.000009 -18.889248 5.982967 35.186082 -27.102160 -0.000046 -0.000037 1.345425 16.975906 -8.628578 -28.299978 -0.000042 -0.000093 0.000000 -0.000000 -0.000004 -2.077986 -0.102976 2.784878 58.687294 -1.786350 -12.439760 -3.454677 -0.000003 1.994531 0.384970 23.648589 6.196479 -3.027784 0.000000 0.000006 0.354961 -6.350830 6.390195 -2.487857 -0.102988 -1.487614 -5.877651 -0.587588 5.118793 -4.460032 -0.000017 -1.623346 -13.699205 -10.889727 13.511409 -3.499996 -0.000006 -0.000000 -0.000025 0.000000 18.000014 -2.199982 0.000038 0.000003 -0.000025 0.000003 18.000023 -2.742975 -0.102996 -0.547549 -2.720100 -0.128111 2.547553 -4.956053 0.000001 -0.873913 -8.112392 -1.343033 16.789781 -4.300014 0.000002 -0.000008 -0.000029 0.000006 18.000007 -2.773190 0.000010 -0.000011 -0.000033 -0.000002 18.000007 -2.767417 -0.102991 0.544726 0.000000 -0.000013 -0.000102 -5.364953 -0.000005 -0.000036 -1.673209 5.134988 18.075083 -4.700001 0.000003 -0.000007 -0.000035 0.000001 18.000001 -3.100002 -0.000008 -0.000009 -0.000034 0.000002 18.000011 -2.645573 -0.103004 1.603410 1.230944 -0.002501 -0.217158 -5.331581 -0.000012 0.940071 0.562046 8.287820 17.910742 -4.499985 0.000006 -0.000011 -0.000027 0.000001 18.000004 -2.768490 -0.000008 -0.000003 -0.000024 -0.000004 18.000018 7.000001 12.368073 1.903807 -0.000009 0.000002 0.000001 13.607785 0.000014 0.000004 30.771877 5.474375 -16.563709 27.102146 -0.000032 0.000040 -1.579680 -14.007933 -12.628986 28.299992 0.000003 -0.000093 0.000005 0.000001 0.000025 2.487855 -0.102954 -1.487624 -5.877495 0.587633 -5.118832 4.460045 -0.000021 -1.623347 -13.699339 10.889692 -13.511458 3.500000 -0.000010 -0.000011 0.000059 -0.000006 -18.000012 2.199975 0.000049 0.000009 -0.000120 -0.000038 -18.000023 2.742958 -0.102972 -0.547562 -2.719965 0.128170 -2.547590 4.956066 -0.000045 -0.873902 -8.112519 1.342978 -16.789824 4.299995 0.000038 -0.000002 -0.000023 0.000000 -17.999980 2.773170 -0.000011 -0.000025 -0.000026 0.000011 -18.000004 2.767429 -0.102967 0.544717 0.000001 0.000010 0.000033 5.364959 -0.000007 -0.000028 -1.673213 -5.134985 -18.075083 4.700001 0.000034 -0.000015 -0.000031 0.000003 -18.000053 3.100018 0.000021 -0.000002 -0.000038 -0.000001 -17.999997 2.645570 -0.102996 1.603405 1.231090 0.002566 0.217094 5.331570 0.000002 0.940089 0.561899 -8.287866 -17.910727 4.499966 0.000015 0.000000 -0.000018 0.000003 -18.000041 2.768501 0.000000 -0.000016 -0.000026 -0.000004 -18.000014 2.077994 -0.102981 2.784847 58.687314 1.786349 12.439769 3.454676 -0.000011 1.994553 0.385051 -23.648610 -6.196392 3.027819 -0.000043 0.000015 0.354924 6.350775 -6.390225 -8.099951 -0.000009 -0.000009 -55.577768 -29.103986 -48.025498 0.000003 -43.200016 0.000024 27.439327 -0.000011 -0.000008 -0.062554 -43.299999 0.000016 -0.000014 -0.000007 0.000004 -0.000010 -6.239442 13.169394 -2.073737 0.851963 -0.000005 8.099955 -0.000009 0.000002 -61.649281 5.670499 25.979053 -0.000024 -43.199974 0.000026 59.818933 0.014013 0.009743 0.062443 -43.299980 0.000020 -8.530298 1.227597 3.210953 -0.000017 -6.239413 13.169406 -6.917090 2.072404 0.000021 
10.850703 85.427803 1.509341 23.734865 6.579828 -8.573454 0.000031 8.483833 -3.948276 -0.000002 -0.000000 0.000015 0.000002 7.549980 0.000003 -0.000003 -0.000000 0.000000 0.000002 7.550011 -0.000004 0.000001 0.000000 0.000000 -0.000025 12.748734 -0.000001 -0.000003 -29.963094 -0.000000 -0.000004 20.150360 -0.000029 -0.000001 -0.000001 0.000001 -0.000009 11.100937 0.000009 0.103263 3.396982 0.305369 -7.000003 12.368092 1.903785 0.000089 0.000002 -0.000051 -13.607781 -0.000023 0.000002 -9.179386 6.815684 26.679866 -27.102163 -0.000063 -0.000033 0.973693 14.615748 -7.333814 -28.299984 0.000005 -0.000096 0.000000 -0.000002 -0.000005 -2.077978 -0.102969 2.784868 58.687273 -1.786371 -12.439765 -3.454688 -0.000019 1.994522 0.384976 23.648593 6.196482 -3.027775 0.000002 0.000008 0.354965 -6.350836 6.390194 -2.487845 -0.103006 -1.487610 -5.877651 -0.587585 5.118791 -4.460032 -0.000017 -1.623349 -13.699202 -10.889731 13.511403 -3.500000 -0.000039 -0.000007 -0.000027 -0.000002 18.000007 -2.199982 0.000026 -0.000006 -0.000027 0.000004 18.000018 -2.742965 -0.102996 -0.547550 -2.720100 -0.128109 2.547552 -4.956038 -0.000016 -0.873911 -8.112391 -1.343031 16.789776 -4.300011 0.000010 -0.000003 -0.000029 0.000007 18.000012 -2.773174 0.000025 -0.000007 -0.000027 -0.000002 18.000012 -2.767417 -0.103009 0.544727 -0.000002 -0.000013 -0.000102 -5.364964 0.000011 -0.000035 -1.673205 5.134991 18.075083 -4.699982 0.000020 -0.000006 -0.000031 0.000002 18.000011 -3.099991 -0.000008 -0.000005 -0.000032 -0.000003 18.000007 -2.645559 -0.103019 1.603412 1.230943 -0.002499 -0.217158 -5.331586 0.000002 0.940071 0.562044 8.287810 17.910738 -4.499959 0.000024 -0.000011 -0.000034 -0.000004 18.000014 -2.768490 0.000006 -0.000005 -0.000023 -0.000002 18.000007 6.999997 12.368088 1.903803 -0.000008 0.000005 0.000004 13.607777 -0.000001 0.000003 30.374623 9.035643 -11.117224 27.102146 -0.000016 0.000045 -1.462156 -11.665448 -14.110990 28.299997 -0.000010 -0.000117 0.000001 -0.000003 0.000023 2.487851 -0.102956 -1.487617 -5.877494 0.587635 -5.118830 4.460057 -0.000015 -1.623330 -13.699342 10.889690 -13.511461 3.499993 0.000007 -0.000018 0.000060 -0.000013 -18.000016 2.199956 0.000020 -0.000000 -0.000123 -0.000040 -18.000014 2.742975 -0.102969 -0.547557 -2.719961 0.128171 -2.547591 4.956055 -0.000030 -0.873889 -8.112522 1.342986 -16.789819 4.299999 0.000021 -0.000011 -0.000029 -0.000001 -17.999985 2.773182 -0.000011 -0.000021 -0.000025 0.000011 -18.000006 2.767442 -0.102977 0.544731 0.000001 0.000011 0.000033 5.364959 -0.000017 -0.000038 -1.673213 -5.134990 -18.075088 4.699997 0.000043 -0.000024 -0.000035 0.000008 -18.000052 3.100002 0.000018 -0.000025 -0.000031 -0.000003 -17.999995 2.645581 -0.102979 1.603418 1.231091 0.002564 0.217093 5.331581 -0.000007 0.940076 0.561899 -8.287864 -17.910727 4.499997 -0.000009 -0.000008 -0.000026 0.000004 -18.000047 2.768505 -0.000000 -0.000019 -0.000023 -0.000001 -18.000018 2.078001 -0.102980 2.784855 58.687328 1.786347 12.439772 3.454680 -0.000023 1.994556 0.385048 -23.648601 -6.196396 3.027801 -0.000033 0.000005 0.354924 6.350775 -6.390227 -8.099954 -0.000007 0.000000 -53.087037 -30.989070 -48.175677 -0.000003 -43.200008 0.000018 25.642077 -0.000024 -0.000009 -0.062552 -43.299992 0.000018 -0.000030 -0.000012 0.000004 -0.000006 -6.239439 13.169397 -2.145184 0.896034 -0.000001 8.099949 0.000006 -0.000006 -56.044352 5.570415 28.008350 -0.000027 -43.199978 0.000023 51.827189 0.013689 0.012583 0.062441 -43.299973 0.000020 -8.456434 0.949440 3.077873 -0.000024 -6.239414 13.169409 -1.728491 1.103916 0.000011 
